<?xml version="1.0" standalone="no"?><svg xmlns="http://www.w3.org/2000/svg" viewBox="0 0 1440 320"><path fill="#f3f4f5" fill-opacity="1" d="M0,96L24,85.3C48,75,96,53,144,48C192,43,240,53,288,85.3C336,117,384,171,432,170.7C480,171,528,117,576,117.3C624,117,672,171,720,176C768,181,816,139,864,112C912,85,960,75,1008,85.3C1056,96,1104,128,1152,128C1200,128,1248,96,1296,80C1344,64,1392,64,1416,64L1440,64L1440,320L1416,320C1392,320,1344,320,1296,320C1248,320,1200,320,1152,320C1104,320,1056,320,1008,320C960,320,912,320,864,320C816,320,768,320,720,320C672,320,624,320,576,320C528,320,480,320,432,320C384,320,336,320,288,320C240,320,192,320,144,320C96,320,48,320,24,320L0,320Z"></path></svg>